<svg width="28" height="25" viewBox="0 0 28 25" fill="none" xmlns="http://www.w3.org/2000/svg">
<path d="M24.3858 0.750791H17.615V1.10142H18.2472C18.8076 1.06688 19.3336 1.27673 19.7187 1.69642C20.0189 1.97001 20.234 2.34985 20.3137 2.76954V16.4174L3.34294 0.224854H2.99232L3.20216 1.41751C3.37748 2.40032 3.44654 3.41501 3.41201 4.43235V21.9291C3.41201 22.455 3.20216 22.9809 2.81701 23.3661C2.43185 23.7513 1.90591 23.9611 1.34544 23.9611H0.713257V24.3117H8.11091V24.3463H10.9159V23.9956H10.2837C9.1256 23.9611 8.21451 23.05 8.21451 21.9264H8.20919L8.18529 8.59204L25.2198 24.7659V24.7314H25.4987L25.3925 24.2055C25.3234 23.8894 25.2517 23.3634 25.1826 22.6967C25.1136 22.03 25.0764 21.2942 25.0764 20.4522V1.74157C25.0897 1.72829 25.1029 1.71235 25.1162 1.69642C25.4669 1.31126 25.9928 1.10142 26.5533 1.10142H27.1483V0.71626H24.3778V0.750791H24.3858Z" fill="#CCCCCC"/>
</svg>
