<svg width="25" height="36" viewBox="0 0 25 36" fill="none" xmlns="http://www.w3.org/2000/svg">
<path fill-rule="evenodd" clip-rule="evenodd" d="M21.3147 20.5048L23.6973 17.2908H24.7147L24.0719 21.7108L21.0995 25.5942L22.17 26.3698L12.6341 35.5312L12.7669 34.7822L21.3651 22.4067L19.4898 21.6311L12.8465 26.4787L12.6314 26.1573L13.1122 15.3623L18.3901 13.2187L18.0156 15.6306L13.8905 17.5059L13.1414 25.3817L13.3034 25.488L19.1153 20.5872L18.7939 17.9097L19.6253 16.3027L19.9733 12.9823L19.4367 12.5812L19.1153 12.6344L12.6872 4.3575L19.2773 11.4816L18.7142 7.48922L14.5891 4.30172L13.7576 1.59765H11.2661L10.4347 4.30172L6.30952 7.48922L5.74639 11.4816L12.3365 4.3575L5.90843 12.6344L5.58702 12.5812L5.05046 12.9823L5.39843 16.3027L6.22983 17.9097L5.90843 20.5872L11.7203 25.488L11.8823 25.3817L11.1333 17.5059L7.00811 15.6306L6.63358 13.2187L11.9116 15.3623L12.395 26.1573L12.1798 26.4787L5.53655 21.6311L3.66124 22.4067L12.2595 34.7822L12.3923 35.5312L2.85639 26.3698L3.92686 25.5942L0.954519 21.7108L0.311707 17.2908H1.32905L3.71171 20.5048H4.38108L4.56967 18.4436L4.00655 16.8366L3.3903 12.5786L4.1128 12.2572L5.05046 6.60469L9.36421 3.31094L10.6498 0.471405H14.3739L15.6595 3.31094L19.9733 6.60469L20.9109 12.2572L21.6334 12.5786L21.0172 16.8366L20.454 18.4436L20.6426 20.5048H21.312H21.3147Z" fill="#CCCCCC"/>
</svg>
