<svg width="27" height="25" viewBox="0 0 27 25" fill="none" xmlns="http://www.w3.org/2000/svg">
<path d="M17.4427 13.3388H17.9686C19.1267 13.3388 19.6872 13.8302 19.6872 14.8475L19.6527 20.0006C19.4428 20.7019 18.986 21.3341 18.4255 21.8228C17.7933 22.3488 17.092 22.7339 16.3563 22.9809C15.586 23.2253 14.7785 23.3661 13.971 23.3661C12.4622 23.3661 11.0252 22.9092 9.79799 22.0327C8.5708 21.0499 7.65971 19.7881 7.1683 18.3166C6.53611 16.4944 6.25721 14.6005 6.29174 12.672C6.25721 10.6745 6.5733 8.67438 7.23737 6.78048C7.79783 5.27173 8.78064 3.94095 10.1114 2.99267C11.4794 2.08157 13.0917 1.6247 14.7386 1.65923C15.8967 1.65923 17.0177 1.83454 18.1041 2.25423C19.225 2.67392 20.1733 3.34064 20.9436 4.2172C21.8202 5.26907 22.4524 6.53079 22.7658 7.86423H23.0819L23.0128 2.11345C22.2425 1.69376 21.4005 1.37767 20.5585 1.16782C19.5066 0.88626 18.4202 0.676416 17.3338 0.535635C16.1411 0.360322 14.9139 0.254073 13.7213 0.254073C11.336 0.18501 8.9533 0.710947 6.81502 1.76282C4.92111 2.70845 3.37783 4.14813 2.32596 5.97032C1.30861 7.75798 0.782677 9.93345 0.782677 12.4569C0.713615 14.7359 1.27408 16.9805 2.36049 18.978C3.41237 20.8002 4.95565 22.2744 6.81236 23.2545C8.91611 24.2719 11.2297 24.7978 13.5433 24.7261C15.2274 24.7606 16.8742 24.5508 18.4866 24.0939C19.82 23.7088 21.0817 23.1483 22.2744 22.4099C23.1855 21.8494 23.993 21.1827 24.6942 20.3752V14.8342C24.6597 13.8169 25.2202 13.3255 26.4128 13.3255H26.9042V12.9749H17.4374V13.3255L17.4427 13.3388Z" fill="#CCCCCC"/>
</svg>
