<svg width="1600" height="811" viewBox="0 0 1600 811" fill="none" xmlns="http://www.w3.org/2000/svg">
<rect x="0.5" y="0.5" width="1599" height="810" fill="#080808"/>
<rect x="0.5" y="0.5" width="1599" height="810" stroke="#2F2B24"/>
<rect x="36" y="4" width="1528" height="2" fill="#40382C"/>
<rect x="31" y="805" width="1538" height="2" fill="#40382C"/>
<path d="M8 6.00989L4 10V7L7 4H36V6.00989H8Z" fill="#40382C"/>
<path d="M10 12.0099L4 18V15L9 10H13.9432V17L6.00989 25V32.0433L6 36H4V24.0516L12 16V12L10 12.0099Z" fill="#40382C"/>
<path d="M8 804.99L4 801V804L7 807H36V804.99H8Z" fill="#40382C"/>
<path d="M10 798.99L4 793V796L9 801H13.9432V794L6.00989 786V778.957L6 775H4V786.948L12 795V799L10 798.99Z" fill="#40382C"/>
<path d="M1592 6.00989L1596 10V7L1593 4H1564V6.00989H1592Z" fill="#40382C"/>
<path d="M1590 12.0099L1596 18V15L1591 10H1586.06V17L1593.99 25V32.0433L1594 36H1596V24.0516L1588 16V12L1590 12.0099Z" fill="#40382C"/>
<path d="M1592 804.99L1596 801V804L1593 807H1564V804.99H1592Z" fill="#40382C"/>
<path d="M1590 798.99L1596 793V796L1591 801H1586.06V794L1593.99 786V778.957L1594 775H1596V786.948L1588 795V799L1590 798.99Z" fill="#40382C"/>
<rect x="1596" y="36" width="361.5" height="2" transform="rotate(90 1596 36)" fill="#40382C"/>
<path d="M1590 405.5L1594 401.5V397.503L1596 397.5V402.5L1590 408.5V405.5Z" fill="#40382C"/>
<path d="M1594 409.5L1596 407.5V413.5H1594V409.5Z" fill="#40382C"/>
<rect x="1596" y="413.5" width="361.5" height="2" transform="rotate(90 1596 413.5)" fill="#40382C"/>
<rect x="6" y="36" width="361.5" height="2" transform="rotate(90 6 36)" fill="#40382C"/>
<path d="M10 405.5L6 401.5V397.503L4 397.5V402.5L10 408.5V405.5Z" fill="#40382C"/>
<path d="M6 409.5L4 407.5V413.5H6V409.5Z" fill="#40382C"/>
<rect x="6" y="413.5" width="361.5" height="2" transform="rotate(90 6 413.5)" fill="#40382C"/>
</svg>
