<svg width="13" height="14" viewBox="0 0 13 14" fill="none" xmlns="http://www.w3.org/2000/svg">
<path d="M2.90867 2.08446H1.48393L8.16242 8.76249L8.90447 8.06501M12.5851 12.5616L11.9617 13.1848C11.8931 13.2536 11.8115 13.3082 11.7218 13.3454C11.632 13.3827 11.5358 13.4018 11.4386 13.4018C11.3414 13.4018 11.2452 13.3827 11.1554 13.3454C11.0656 13.3082 10.9841 13.2536 10.9154 13.1848L8.60023 10.8698L6.61152 12.8435L5.56523 11.7973L6.61895 10.7436L-0.000183105 4.12497V0.600449H3.52458L10.1437 7.21912L11.1974 6.16548L12.2437 7.2117L10.2624 9.19285L12.5776 11.5079C12.8745 11.8047 12.8745 12.2722 12.5851 12.5616Z" fill="#CCCCCC"/>
</svg>
