<svg width="13" height="14" viewBox="0 0 13 14" fill="none" xmlns="http://www.w3.org/2000/svg">
<path d="M2.91215 2.08446H1.48741L8.1659 8.76249L8.90795 8.06501M12.5885 12.5616L11.9652 13.1848C11.8966 13.2536 11.815 13.3082 11.7253 13.3454C11.6355 13.3827 11.5393 13.4018 11.4421 13.4018C11.3449 13.4018 11.2487 13.3827 11.1589 13.3454C11.0691 13.3082 10.9876 13.2536 10.9189 13.1848L8.60371 10.8698L6.615 12.8435L5.56871 11.7973L6.62242 10.7436L0.0032959 4.12497V0.600449H3.52806L10.1472 7.21912L11.2009 6.16548L12.2472 7.2117L10.2659 9.19285L12.5811 11.5079C12.8779 11.8047 12.8779 12.2722 12.5885 12.5616Z" fill="#7C7C7C"/>
</svg>
